<?xml version="1.0" standalone="no"?>
<!DOCTYPE svg PUBLIC "-//W3C//DTD SVG 20010904//EN"
 "http://www.w3.org/TR/2001/REC-SVG-20010904/DTD/svg10.dtd">
<svg version="1.0" xmlns="http://www.w3.org/2000/svg"
 width="16.000000pt" height="16.000000pt" viewBox="0 0 16.000000 16.000000"
 preserveAspectRatio="xMidYMid meet">
<metadata>
Created by potrace 1.11, written by Peter Selinger 2001-2013
</metadata>
<g transform="translate(0.000000,16.000000) scale(0.012500,-0.012500)"
fill="#000000" stroke="none">
<path d="M147 876 l-77 -73 285 -281 c156 -155 288 -282 292 -282 4 1 136 126
293 280 l285 279 -75 75 -74 76 -426 0 -425 -1 -78 -73z m343 61 c0 -1 -28
-31 -63 -65 l-63 -62 -64 65 -64 65 127 0 c70 0 127 -1 127 -3z m225 -57 c-33
-33 -64 -60 -69 -60 -6 0 -36 26 -68 57 -32 32 -58 55 -58 51 0 -3 26 -31 58
-62 l57 -56 -130 0 -130 0 55 53 c30 30 64 59 75 65 12 7 70 12 145 12 l124 0
-59 -60z m414 -5 l66 -65 -125 0 -124 0 59 62 60 62 -63 -57 c-35 -31 -66 -57
-70 -57 -4 0 -25 17 -47 38 -75 69 -90 77 -30 14 l59 -62 -124 0 -125 0 66 65
67 65 132 0 132 0 67 -65z m-844 -5 l59 -60 -124 0 -124 0 59 60 c33 33 62 60
65 60 3 0 32 -27 65 -60z m204 -326 c67 -136 120 -248 119 -249 -2 -1 -118
109 -258 246 l-255 249 136 0 136 0 122 -246z m140 -6 l0 -253 -74 150 c-41
83 -97 196 -124 253 l-51 102 125 0 125 0 -1 -252z m291 246 c0 -4 -25 -55
-56 -113 -31 -58 -75 -140 -97 -181 -80 -151 -118 -220 -123 -220 -2 0 -4 117
-4 260 l0 260 140 0 c77 0 140 -3 140 -6z m25 -244 c-137 -137 -256 -252 -263
-255 -8 -3 -7 5 4 28 30 58 185 351 221 415 l34 62 127 0 127 0 -250 -250z"/>
</g>
</svg>
